<svg width="24" height="24" viewBox="0 0 24 24" fill="none" xmlns="http://www.w3.org/2000/svg">
<path d="M5.24219 12C5.24219 12.7031 5.48958 13.3151 5.98438 13.8359C6.50521 14.3307 7.11719 14.5781 7.82031 14.5781H11.1797V16.1797H7.82031C7.0651 16.1797 6.36198 15.9974 5.71094 15.6328C5.08594 15.2422 4.59115 14.7344 4.22656 14.1094C3.86198 13.4583 3.67969 12.7552 3.67969 12C3.67969 11.2448 3.86198 10.5547 4.22656 9.92969C4.59115 9.27865 5.08594 8.77083 5.71094 8.40625C6.36198 8.01562 7.0651 7.82031 7.82031 7.82031H11.1797V9.42188H7.82031C7.11719 9.42188 6.50521 9.68229 5.98438 10.2031C5.48958 10.6979 5.24219 11.2969 5.24219 12ZM8.67969 12.8203V11.1797H15.3203V12.8203H8.67969ZM16.1797 7.82031C16.9349 7.82031 17.625 8.01562 18.25 8.40625C18.901 8.77083 19.4089 9.27865 19.7734 9.92969C20.138 10.5547 20.3203 11.2448 20.3203 12C20.3203 12.7552 20.138 13.4583 19.7734 14.1094C19.4089 14.7344 18.901 15.2422 18.25 15.6328C17.625 15.9974 16.9349 16.1797 16.1797 16.1797H12.8203V14.5781H16.1797C16.8828 14.5781 17.4818 14.3307 17.9766 13.8359C18.4974 13.3151 18.7578 12.7031 18.7578 12C18.7578 11.2969 18.4974 10.6979 17.9766 10.2031C17.4818 9.68229 16.8828 9.42188 16.1797 9.42188H12.8203V7.82031H16.1797Z" fill="currentColor"/>
</svg>
