<svg width="24" height="24" viewBox="0 0 24 24" fill="none" xmlns="http://www.w3.org/2000/svg">
<path d="M10.1445 4.71484C11.1081 4.71484 12.0065 4.96224 12.8398 5.45703C13.6732 5.92578 14.3242 6.57682 14.793 7.41016C15.2878 8.24349 15.5352 9.15495 15.5352 10.1445C15.5352 11.4727 15.1055 12.6445 14.2461 13.6602L14.4805 13.8945H15.1445L19.2852 18.0352L18.0352 19.2852L13.8945 15.1445V14.4805L13.6602 14.2461C12.6445 15.1055 11.4727 15.5352 10.1445 15.5352C9.15495 15.5352 8.24349 15.3008 7.41016 14.832C6.57682 14.3372 5.91276 13.6732 5.41797 12.8398C4.94922 12.0065 4.71484 11.1081 4.71484 10.1445C4.71484 9.15495 4.94922 8.24349 5.41797 7.41016C5.91276 6.57682 6.57682 5.92578 7.41016 5.45703C8.24349 4.96224 9.15495 4.71484 10.1445 4.71484ZM10.1445 6.39453C9.10286 6.39453 8.21745 6.75911 7.48828 7.48828C6.75911 8.21745 6.39453 9.10286 6.39453 10.1445C6.39453 11.1862 6.75911 12.0716 7.48828 12.8008C8.21745 13.5299 9.10286 13.8945 10.1445 13.8945C11.1862 13.8945 12.0716 13.5299 12.8008 12.8008C13.5299 12.0716 13.8945 11.1862 13.8945 10.1445C13.8945 9.10286 13.5299 8.21745 12.8008 7.48828C12.0716 6.75911 11.1862 6.39453 10.1445 6.39453Z" fill="currentColor"/>
</svg>
